<svg width="58" height="44" viewBox="0 0 58 44" fill="none" xmlns="http://www.w3.org/2000/svg">
<path d="M21.2362 4.14333H36.7639V30.0457H21.2362V4.14333Z" fill="#FF5F00"/>
<path d="M10.7368 43.0833V40.3375C10.7368 39.2848 10.0465 38.5985 8.86333 38.5985C8.27186 38.5985 7.63099 38.7815 7.18728 39.3765C6.84237 38.873 6.34948 38.5985 5.61003 38.5985C5.11691 38.5985 4.62425 38.7357 4.22971 39.2391V38.69H3.19453V43.0833H4.22971V40.6577C4.22971 39.8799 4.67343 39.5137 5.3637 39.5137C6.05352 39.5137 6.39888 39.9256 6.39888 40.6577V43.0833H7.43406V40.6577C7.43406 39.8799 7.92673 39.5137 8.5676 39.5137C9.25787 39.5137 9.60278 39.9256 9.60278 40.6577V43.0833H10.7368ZM26.0671 38.69H24.3913V37.3629H23.3561V38.69H22.4195V39.5593H23.3559V41.5731C23.3559 42.58 23.7996 43.1748 24.9827 43.1748C25.4265 43.1748 25.9191 43.0376 26.2645 42.8546L25.9685 42.0307C25.6728 42.2137 25.3279 42.2596 25.0813 42.2596C24.5884 42.2596 24.3913 41.9851 24.3913 41.5273V39.5593H26.0671V38.69ZM34.8417 38.5983C34.2502 38.5983 33.8559 38.873 33.6093 39.2391V38.69H32.5742V43.0833H33.6093V40.6121C33.6093 39.8799 33.9542 39.468 34.5951 39.468C34.7923 39.468 35.0388 39.5139 35.236 39.5595L35.5317 38.6444C35.3346 38.5985 35.0388 38.5985 34.8417 38.5985V38.5983ZM21.5815 39.0561C21.0884 38.7357 20.3983 38.5985 19.6589 38.5985C18.4759 38.5985 17.6873 39.1476 17.6873 40.0171C17.6873 40.7495 18.2788 41.1612 19.3139 41.2986L19.8068 41.3444C20.3491 41.4357 20.6449 41.5731 20.6449 41.802C20.6449 42.1222 20.2506 42.3511 19.5603 42.3511C18.8702 42.3511 18.3279 42.1222 17.9828 41.8935L17.4899 42.6257C18.0322 42.9917 18.7717 43.1748 19.5109 43.1748C20.8912 43.1748 21.68 42.58 21.68 41.7562C21.68 40.9782 21.0392 40.5662 20.0532 40.4291L19.5603 40.3832C19.1166 40.3373 18.7717 40.246 18.7717 39.9715C18.7717 39.651 19.1166 39.468 19.6589 39.468C20.2506 39.468 20.842 39.6967 21.1378 39.8341L21.5815 39.0561ZM49.0879 38.5985C48.4962 38.5985 48.1019 38.873 47.8553 39.2391V38.69H46.8201V43.0833H47.8553V40.6121C47.8553 39.8799 48.2005 39.468 48.8411 39.468C49.0385 39.468 49.285 39.5139 49.4822 39.5595L49.7779 38.6444C49.5808 38.5985 49.285 38.5985 49.0879 38.5985ZM35.8769 40.8866C35.8769 42.2137 36.8626 43.1748 38.3909 43.1748C39.081 43.1748 39.5739 43.0376 40.0668 42.6715L39.5739 41.8935C39.1796 42.1681 38.7852 42.3053 38.3415 42.3053C37.5035 42.3053 36.912 41.7562 36.912 40.8866C36.912 40.063 37.5035 39.5137 38.3415 39.468C38.7852 39.468 39.1796 39.6052 39.5739 39.8799L40.0668 39.1019C39.5739 38.7357 39.081 38.5985 38.3909 38.5985C36.8626 38.5985 35.8769 39.5595 35.8769 40.8866ZM45.4401 40.8866V38.69H44.4049V39.2391C44.0597 38.8274 43.5668 38.5985 42.926 38.5985C41.5951 38.5985 40.5599 39.5595 40.5599 40.8866C40.5599 42.2137 41.5951 43.1748 42.926 43.1748C43.616 43.1748 44.1091 42.9461 44.4049 42.5342V43.0833H45.4401V40.8866ZM41.6442 40.8866C41.6442 40.1086 42.1865 39.468 43.0737 39.468C43.9118 39.468 44.5034 40.063 44.5034 40.8866C44.5034 41.6646 43.9118 42.3053 43.0737 42.3053C42.1865 42.2594 41.6442 41.6646 41.6442 40.8866ZM29.2715 38.5985C27.8911 38.5985 26.9051 39.5137 26.9051 40.8866C26.9051 42.2596 27.8909 43.1748 29.3206 43.1748C30.0107 43.1748 30.7009 42.9917 31.2432 42.58L30.7501 41.8935C30.3558 42.1681 29.8629 42.3511 29.37 42.3511C28.7292 42.3511 28.0883 42.0766 27.9403 41.2984H31.4404V40.9325C31.4898 39.5137 30.6024 38.5985 29.2712 38.5985H29.2715ZM29.2715 39.4222C29.9121 39.4222 30.356 39.7884 30.4544 40.4749H27.9897C28.0883 39.8799 28.532 39.4222 29.2715 39.4222ZM54.9538 40.8866V36.951H53.9187V39.2391C53.5735 38.8274 53.0806 38.5985 52.4398 38.5985C51.1088 38.5985 50.0737 39.5595 50.0737 40.8866C50.0737 42.2137 51.1088 43.1748 52.4398 43.1748C53.13 43.1748 53.6229 42.9461 53.9187 42.5342V43.0833H54.9538V40.8866ZM51.1583 40.8866C51.1583 40.1086 51.7003 39.468 52.5877 39.468C53.4258 39.468 54.0172 40.063 54.0172 40.8866C54.0172 41.6646 53.4258 42.3053 52.5877 42.3053C51.7003 42.2594 51.1583 41.6646 51.1583 40.8866ZM16.5533 40.8866V38.69H15.5181V39.2391C15.173 38.8274 14.6801 38.5985 14.0392 38.5985C12.7083 38.5985 11.6731 39.5595 11.6731 40.8866C11.6731 42.2137 12.7083 43.1748 14.0392 43.1748C14.7295 43.1748 15.2224 42.9461 15.5181 42.5342V43.0833H16.5533V40.8866ZM12.7083 40.8866C12.7083 40.1086 13.2506 39.468 14.1378 39.468C14.9758 39.468 15.5675 40.063 15.5675 40.8866C15.5675 41.6646 14.9758 42.3053 14.1378 42.3053C13.2506 42.2594 12.7083 41.6646 12.7083 40.8866Z" fill="white"/>
<path d="M22.2219 17.0946C22.2219 11.8318 24.8837 7.16379 28.9751 4.1433C25.9683 1.94667 22.1727 0.619568 18.032 0.619568C8.22202 0.619568 0.285706 7.98744 0.285706 17.0946C0.285706 26.2015 8.22202 33.5696 18.0318 33.5696C22.1725 33.5696 25.9681 32.2425 28.9751 30.0456C24.8837 27.071 22.2219 22.3573 22.2219 17.0946Z" fill="#EB001B"/>
<path d="M57.7136 17.0946C57.7136 26.2015 49.7773 33.5696 39.9675 33.5696C35.8268 33.5696 32.0312 32.2425 29.0243 30.0456C33.165 27.0253 35.7776 22.3573 35.7776 17.0946C35.7776 11.8318 33.1156 7.16379 29.0243 4.1433C32.031 1.94667 35.8268 0.619568 39.9675 0.619568C49.7773 0.619568 57.7138 8.03331 57.7138 17.0946H57.7136Z" fill="#F79E1B"/>
</svg>
